<svg id="Layer_1" height="512" viewBox="0 0 512 512" width="512" xmlns="http://www.w3.org/2000/svg" data-name="Layer 1"><path d="m496 231h-181.88l129.05-133.96a215.062 215.062 0 0 1 52.83 133.96z" fill="#b0b5ca"/><path d="m235.38 265h216.69c-2.21 65.99-34.26 124.84-83.21 163.32l-.73-.92z" fill="#f1ce7e"/><path d="m233.23 265h2.15l132.75 162.4.73.92a217.559 217.559 0 0 1 -263.24 4.48l.61-.83 126.73-169.93.62.76-.35.37-.27.59z" fill="#6994fe"/><path d="m232.96 262.04-126.73 169.93-.61.83a218.72 218.72 0 0 1 -37.94-317.75z" fill="#5fcda4"/><path d="m388.12 102.17-154.54 160.63-.62-.76 1.15-224.11a217.445 217.445 0 0 1 154.21 63.93z" fill="#53d8d8"/><path d="m234.11 37.93-1.15 224.11-165.28-146.99a217.637 217.637 0 0 1 166.43-77.12z" fill="#ea7288"/><path d="m117.028 417.491-10.8 14.479-.61.83a216.315 216.315 0 0 0 128.49 42.13q7.585 0 15.043-.519a216.292 216.292 0 0 1 -113.531-41.611 219.6 219.6 0 0 1 -18.592-15.309z" fill="#6084cc"/><path d="m117.028 417.491a218.675 218.675 0 0 1 -31.559-286.62l-17.789-15.821a218.72 218.72 0 0 0 37.94 317.75l.61-.83z" fill="#549b7e"/><path d="m97.68 115.05a217.773 217.773 0 0 1 136.42-75.064l.011-2.056a217.637 217.637 0 0 0 -166.431 77.12l17.789 15.821q5.751-8.192 12.211-15.821z" fill="#ad5e73"/></svg>